<svg xmlns="http://www.w3.org/2000/svg" viewBox="0 0 400 300" width="100%" height="100%">
  <rect width="400" height="300" fill="#fdfdfd" />
  <path d="M 120 220 Q 110 150 140 100 Q 150 60 180 80 Q 200 60 220 80 Q 250 100 280 150 Q 290 220 280 250 Q 200 260 120 250 Z" fill="none" stroke="#444" stroke-width="4" stroke-linecap="round" stroke-linejoin="round" style="filter: url(#rough);" />
  <path d="M 140 100 L 120 60 L 160 80 M 260 100 L 280 60 L 240 80" fill="none" stroke="#444" stroke-width="4" stroke-linecap="round" stroke-linejoin="round" style="filter: url(#rough);" />
  <path d="M 180 160 Q 200 170 220 160 M 200 165 L 200 180" fill="none" stroke="#444" stroke-width="3" stroke-linecap="round" />
  <path d="M 280 220 Q 330 200 350 150 Q 360 180 320 240" fill="none" stroke="#444" stroke-width="4" stroke-linecap="round" style="filter: url(#rough);" />
  <defs>
    <filter id="rough">
      <feTurbulence type="fractalNoise" baseFrequency="0.05" numOctaves="2" result="noise" />
      <feDisplacementMap in="SourceGraphic" in2="noise" scale="3" xChannelSelector="R" yChannelSelector="G" />
    </filter>
  </defs>
</svg>